<mxfile host="app.diagrams.net" modified="2024-07-09T18:41:47.243Z" agent="Mozilla/5.0 (Macintosh; Intel Mac OS X 10_15_7) AppleWebKit/537.36 (KHTML, like Gecko) Chrome/126.0.0.0 Safari/537.36" etag="h2LyCOghgGOIDkdwhHdA" version="24.6.4" type="github">
  <diagram name="PÃ¡gina-1" id="NpOXHV-QXeUyOOc_j8zm">
    <mxGraphModel dx="2394" dy="1251" grid="1" gridSize="10" guides="1" tooltips="1" connect="1" arrows="1" fold="1" page="1" pageScale="1" pageWidth="827" pageHeight="1169" math="0" shadow="0">
      <root>
        <mxCell id="0" />
        <mxCell id="1" parent="0" />
        <mxCell id="fqqIP6eFxA6m0LQGmO3t-1" value="Profesores" style="rounded=0;whiteSpace=wrap;html=1;strokeColor=default;align=center;verticalAlign=middle;fontFamily=Helvetica;fontSize=12;fontColor=default;fillColor=default;" vertex="1" parent="1">
          <mxGeometry x="370" y="495" width="120" height="60" as="geometry" />
        </mxCell>
        <mxCell id="fqqIP6eFxA6m0LQGmO3t-2" value="Modulo" style="rounded=0;whiteSpace=wrap;html=1;strokeColor=default;align=center;verticalAlign=middle;fontFamily=Helvetica;fontSize=12;fontColor=default;fillColor=default;" vertex="1" parent="1">
          <mxGeometry x="760" y="495" width="120" height="60" as="geometry" />
        </mxCell>
        <mxCell id="fqqIP6eFxA6m0LQGmO3t-3" value="Alumno" style="rounded=0;whiteSpace=wrap;html=1;strokeColor=default;align=center;verticalAlign=middle;fontFamily=Helvetica;fontSize=12;fontColor=default;fillColor=default;" vertex="1" parent="1">
          <mxGeometry x="935" y="690" width="120" height="60" as="geometry" />
        </mxCell>
        <mxCell id="fqqIP6eFxA6m0LQGmO3t-5" value="&lt;u&gt;DNI&lt;/u&gt;" style="ellipse;whiteSpace=wrap;html=1;" vertex="1" parent="1">
          <mxGeometry x="270" y="340" width="90" height="50" as="geometry" />
        </mxCell>
        <mxCell id="fqqIP6eFxA6m0LQGmO3t-6" value="nombre" style="ellipse;whiteSpace=wrap;html=1;" vertex="1" parent="1">
          <mxGeometry x="230" y="410" width="90" height="50" as="geometry" />
        </mxCell>
        <mxCell id="fqqIP6eFxA6m0LQGmO3t-7" value="direccion" style="ellipse;whiteSpace=wrap;html=1;" vertex="1" parent="1">
          <mxGeometry x="220" y="490" width="90" height="50" as="geometry" />
        </mxCell>
        <mxCell id="fqqIP6eFxA6m0LQGmO3t-8" value="telefono" style="ellipse;whiteSpace=wrap;html=1;" vertex="1" parent="1">
          <mxGeometry x="230" y="560" width="90" height="50" as="geometry" />
        </mxCell>
        <mxCell id="fqqIP6eFxA6m0LQGmO3t-9" value="" style="endArrow=classic;html=1;rounded=0;exitX=1;exitY=0.5;exitDx=0;exitDy=0;entryX=0.25;entryY=0;entryDx=0;entryDy=0;" edge="1" parent="1" source="fqqIP6eFxA6m0LQGmO3t-5" target="fqqIP6eFxA6m0LQGmO3t-1">
          <mxGeometry width="50" height="50" relative="1" as="geometry">
            <mxPoint x="610" y="630" as="sourcePoint" />
            <mxPoint x="660" y="580" as="targetPoint" />
          </mxGeometry>
        </mxCell>
        <mxCell id="fqqIP6eFxA6m0LQGmO3t-10" value="" style="endArrow=classic;html=1;rounded=0;exitX=1;exitY=0.5;exitDx=0;exitDy=0;entryX=0;entryY=0;entryDx=0;entryDy=0;" edge="1" parent="1" source="fqqIP6eFxA6m0LQGmO3t-6" target="fqqIP6eFxA6m0LQGmO3t-1">
          <mxGeometry width="50" height="50" relative="1" as="geometry">
            <mxPoint x="530" y="605" as="sourcePoint" />
            <mxPoint x="580" y="700" as="targetPoint" />
          </mxGeometry>
        </mxCell>
        <mxCell id="fqqIP6eFxA6m0LQGmO3t-11" value="" style="endArrow=classic;html=1;rounded=0;exitX=1;exitY=0.5;exitDx=0;exitDy=0;entryX=0;entryY=0.5;entryDx=0;entryDy=0;entryPerimeter=0;" edge="1" parent="1" source="fqqIP6eFxA6m0LQGmO3t-7" target="fqqIP6eFxA6m0LQGmO3t-1">
          <mxGeometry width="50" height="50" relative="1" as="geometry">
            <mxPoint x="540" y="615" as="sourcePoint" />
            <mxPoint x="590" y="710" as="targetPoint" />
          </mxGeometry>
        </mxCell>
        <mxCell id="fqqIP6eFxA6m0LQGmO3t-12" value="" style="endArrow=classic;html=1;rounded=0;exitX=1;exitY=0.5;exitDx=0;exitDy=0;entryX=0;entryY=1;entryDx=0;entryDy=0;" edge="1" parent="1" source="fqqIP6eFxA6m0LQGmO3t-8" target="fqqIP6eFxA6m0LQGmO3t-1">
          <mxGeometry width="50" height="50" relative="1" as="geometry">
            <mxPoint x="550" y="625" as="sourcePoint" />
            <mxPoint x="600" y="720" as="targetPoint" />
          </mxGeometry>
        </mxCell>
        <mxCell id="fqqIP6eFxA6m0LQGmO3t-13" value="Imparte" style="rhombus;whiteSpace=wrap;html=1;" vertex="1" parent="1">
          <mxGeometry x="565" y="490" width="70" height="70" as="geometry" />
        </mxCell>
        <mxCell id="fqqIP6eFxA6m0LQGmO3t-16" value="&lt;u&gt;Codigo_modulo&lt;/u&gt;" style="ellipse;whiteSpace=wrap;html=1;" vertex="1" parent="1">
          <mxGeometry x="710" y="370" width="109" height="50" as="geometry" />
        </mxCell>
        <mxCell id="fqqIP6eFxA6m0LQGmO3t-17" value="nombre" style="ellipse;whiteSpace=wrap;html=1;" vertex="1" parent="1">
          <mxGeometry x="860" y="370" width="90" height="50" as="geometry" />
        </mxCell>
        <mxCell id="fqqIP6eFxA6m0LQGmO3t-18" value="" style="endArrow=classic;html=1;rounded=0;exitX=0.5;exitY=1;exitDx=0;exitDy=0;entryX=0.25;entryY=0;entryDx=0;entryDy=0;" edge="1" parent="1" source="fqqIP6eFxA6m0LQGmO3t-16" target="fqqIP6eFxA6m0LQGmO3t-2">
          <mxGeometry width="50" height="50" relative="1" as="geometry">
            <mxPoint x="530" y="605" as="sourcePoint" />
            <mxPoint x="580" y="700" as="targetPoint" />
          </mxGeometry>
        </mxCell>
        <mxCell id="fqqIP6eFxA6m0LQGmO3t-19" value="" style="endArrow=classic;html=1;rounded=0;exitX=0.5;exitY=1;exitDx=0;exitDy=0;entryX=0.75;entryY=0;entryDx=0;entryDy=0;" edge="1" parent="1" source="fqqIP6eFxA6m0LQGmO3t-17" target="fqqIP6eFxA6m0LQGmO3t-2">
          <mxGeometry width="50" height="50" relative="1" as="geometry">
            <mxPoint x="784" y="430" as="sourcePoint" />
            <mxPoint x="800" y="505" as="targetPoint" />
          </mxGeometry>
        </mxCell>
        <mxCell id="fqqIP6eFxA6m0LQGmO3t-20" value="N" style="text;html=1;align=center;verticalAlign=middle;whiteSpace=wrap;rounded=0;" vertex="1" parent="1">
          <mxGeometry x="490" y="495" width="30" height="30" as="geometry" />
        </mxCell>
        <mxCell id="fqqIP6eFxA6m0LQGmO3t-21" value="N" style="text;html=1;align=center;verticalAlign=middle;whiteSpace=wrap;rounded=0;" vertex="1" parent="1">
          <mxGeometry x="730" y="495" width="30" height="30" as="geometry" />
        </mxCell>
        <mxCell id="fqqIP6eFxA6m0LQGmO3t-22" value="Matricular" style="rhombus;whiteSpace=wrap;html=1;" vertex="1" parent="1">
          <mxGeometry x="960" y="490" width="70" height="70" as="geometry" />
        </mxCell>
        <mxCell id="fqqIP6eFxA6m0LQGmO3t-25" value="1" style="text;html=1;align=center;verticalAlign=middle;whiteSpace=wrap;rounded=0;" vertex="1" parent="1">
          <mxGeometry x="1000" y="660" width="30" height="30" as="geometry" />
        </mxCell>
        <mxCell id="fqqIP6eFxA6m0LQGmO3t-26" value="N" style="text;html=1;align=center;verticalAlign=middle;whiteSpace=wrap;rounded=0;" vertex="1" parent="1">
          <mxGeometry x="890" y="495" width="30" height="30" as="geometry" />
        </mxCell>
        <mxCell id="fqqIP6eFxA6m0LQGmO3t-27" value="nombre" style="ellipse;whiteSpace=wrap;html=1;" vertex="1" parent="1">
          <mxGeometry x="1120" y="635" width="90" height="50" as="geometry" />
        </mxCell>
        <mxCell id="fqqIP6eFxA6m0LQGmO3t-28" value="Apellidos" style="ellipse;whiteSpace=wrap;html=1;" vertex="1" parent="1">
          <mxGeometry x="1127" y="710" width="90" height="50" as="geometry" />
        </mxCell>
        <mxCell id="fqqIP6eFxA6m0LQGmO3t-29" value="Fecha_nacimiento" style="ellipse;whiteSpace=wrap;html=1;" vertex="1" parent="1">
          <mxGeometry x="1120" y="790" width="110" height="50" as="geometry" />
        </mxCell>
        <mxCell id="fqqIP6eFxA6m0LQGmO3t-30" value="" style="endArrow=classic;html=1;rounded=0;exitX=0;exitY=0.5;exitDx=0;exitDy=0;entryX=1;entryY=0;entryDx=0;entryDy=0;" edge="1" parent="1" source="fqqIP6eFxA6m0LQGmO3t-31" target="fqqIP6eFxA6m0LQGmO3t-3">
          <mxGeometry width="50" height="50" relative="1" as="geometry">
            <mxPoint x="1010" y="880" as="sourcePoint" />
            <mxPoint x="1060" y="975" as="targetPoint" />
          </mxGeometry>
        </mxCell>
        <mxCell id="fqqIP6eFxA6m0LQGmO3t-31" value="&lt;u&gt;N_expediente&lt;/u&gt;" style="ellipse;whiteSpace=wrap;html=1;" vertex="1" parent="1">
          <mxGeometry x="1100" y="570" width="100" height="50" as="geometry" />
        </mxCell>
        <mxCell id="fqqIP6eFxA6m0LQGmO3t-32" value="" style="endArrow=classic;html=1;rounded=0;exitX=0;exitY=0.5;exitDx=0;exitDy=0;entryX=1;entryY=0.25;entryDx=0;entryDy=0;" edge="1" parent="1" source="fqqIP6eFxA6m0LQGmO3t-27" target="fqqIP6eFxA6m0LQGmO3t-3">
          <mxGeometry width="50" height="50" relative="1" as="geometry">
            <mxPoint x="1110" y="605" as="sourcePoint" />
            <mxPoint x="1070" y="720" as="targetPoint" />
          </mxGeometry>
        </mxCell>
        <mxCell id="fqqIP6eFxA6m0LQGmO3t-33" value="" style="endArrow=classic;html=1;rounded=0;exitX=0;exitY=0.5;exitDx=0;exitDy=0;entryX=1;entryY=0.75;entryDx=0;entryDy=0;" edge="1" parent="1" source="fqqIP6eFxA6m0LQGmO3t-28" target="fqqIP6eFxA6m0LQGmO3t-3">
          <mxGeometry width="50" height="50" relative="1" as="geometry">
            <mxPoint x="1120" y="615" as="sourcePoint" />
            <mxPoint x="1075" y="710" as="targetPoint" />
          </mxGeometry>
        </mxCell>
        <mxCell id="fqqIP6eFxA6m0LQGmO3t-34" value="" style="endArrow=classic;html=1;rounded=0;exitX=0;exitY=0.5;exitDx=0;exitDy=0;entryX=1;entryY=1;entryDx=0;entryDy=0;" edge="1" parent="1" source="fqqIP6eFxA6m0LQGmO3t-29" target="fqqIP6eFxA6m0LQGmO3t-3">
          <mxGeometry width="50" height="50" relative="1" as="geometry">
            <mxPoint x="1137" y="745" as="sourcePoint" />
            <mxPoint x="1065" y="730" as="targetPoint" />
          </mxGeometry>
        </mxCell>
        <mxCell id="fqqIP6eFxA6m0LQGmO3t-35" value="Delegado" style="rhombus;whiteSpace=wrap;html=1;" vertex="1" parent="1">
          <mxGeometry x="770" y="685" width="70" height="70" as="geometry" />
        </mxCell>
        <mxCell id="fqqIP6eFxA6m0LQGmO3t-38" value="1" style="text;html=1;align=center;verticalAlign=middle;whiteSpace=wrap;rounded=0;" vertex="1" parent="1">
          <mxGeometry x="840" y="690" width="30" height="30" as="geometry" />
        </mxCell>
        <mxCell id="fqqIP6eFxA6m0LQGmO3t-39" value="1" style="text;html=1;align=center;verticalAlign=middle;whiteSpace=wrap;rounded=0;" vertex="1" parent="1">
          <mxGeometry x="970" y="750" width="30" height="30" as="geometry" />
        </mxCell>
        <mxCell id="fqqIP6eFxA6m0LQGmO3t-42" value="" style="endArrow=none;html=1;rounded=0;exitX=1;exitY=0.5;exitDx=0;exitDy=0;entryX=0;entryY=0.5;entryDx=0;entryDy=0;edgeStyle=orthogonalEdgeStyle;" edge="1" parent="1" source="fqqIP6eFxA6m0LQGmO3t-1" target="fqqIP6eFxA6m0LQGmO3t-13">
          <mxGeometry width="50" height="50" relative="1" as="geometry">
            <mxPoint x="680" y="990" as="sourcePoint" />
            <mxPoint x="730" y="940" as="targetPoint" />
          </mxGeometry>
        </mxCell>
        <mxCell id="fqqIP6eFxA6m0LQGmO3t-44" value="" style="endArrow=none;html=1;rounded=0;exitX=0;exitY=0.5;exitDx=0;exitDy=0;entryX=1;entryY=0.5;entryDx=0;entryDy=0;" edge="1" parent="1" source="fqqIP6eFxA6m0LQGmO3t-2" target="fqqIP6eFxA6m0LQGmO3t-13">
          <mxGeometry width="50" height="50" relative="1" as="geometry">
            <mxPoint x="670" y="710" as="sourcePoint" />
            <mxPoint x="695" y="535" as="targetPoint" />
          </mxGeometry>
        </mxCell>
        <mxCell id="fqqIP6eFxA6m0LQGmO3t-45" value="" style="endArrow=none;html=1;rounded=0;exitX=0;exitY=0.5;exitDx=0;exitDy=0;entryX=1;entryY=0.5;entryDx=0;entryDy=0;" edge="1" parent="1" source="fqqIP6eFxA6m0LQGmO3t-22" target="fqqIP6eFxA6m0LQGmO3t-2">
          <mxGeometry width="50" height="50" relative="1" as="geometry">
            <mxPoint x="770" y="535" as="sourcePoint" />
            <mxPoint x="645" y="535" as="targetPoint" />
          </mxGeometry>
        </mxCell>
        <mxCell id="fqqIP6eFxA6m0LQGmO3t-46" value="" style="endArrow=none;html=1;rounded=0;exitX=0.5;exitY=1;exitDx=0;exitDy=0;entryX=0.5;entryY=0;entryDx=0;entryDy=0;" edge="1" parent="1" source="fqqIP6eFxA6m0LQGmO3t-22" target="fqqIP6eFxA6m0LQGmO3t-3">
          <mxGeometry width="50" height="50" relative="1" as="geometry">
            <mxPoint x="970" y="535" as="sourcePoint" />
            <mxPoint x="890" y="535" as="targetPoint" />
          </mxGeometry>
        </mxCell>
        <mxCell id="fqqIP6eFxA6m0LQGmO3t-48" value="" style="endArrow=none;html=1;rounded=0;exitX=0;exitY=0.5;exitDx=0;exitDy=0;entryX=1;entryY=0.5;entryDx=0;entryDy=0;" edge="1" parent="1" source="fqqIP6eFxA6m0LQGmO3t-3" target="fqqIP6eFxA6m0LQGmO3t-35">
          <mxGeometry width="50" height="50" relative="1" as="geometry">
            <mxPoint x="1005" y="570" as="sourcePoint" />
            <mxPoint x="1005" y="700" as="targetPoint" />
          </mxGeometry>
        </mxCell>
        <mxCell id="fqqIP6eFxA6m0LQGmO3t-49" value="" style="endArrow=none;html=1;rounded=0;entryX=0.5;entryY=1;entryDx=0;entryDy=0;exitX=0.5;exitY=1;exitDx=0;exitDy=0;edgeStyle=orthogonalEdgeStyle;" edge="1" parent="1" source="fqqIP6eFxA6m0LQGmO3t-3" target="fqqIP6eFxA6m0LQGmO3t-35">
          <mxGeometry width="50" height="50" relative="1" as="geometry">
            <mxPoint x="790" y="900" as="sourcePoint" />
            <mxPoint x="840" y="850" as="targetPoint" />
            <Array as="points">
              <mxPoint x="995" y="800" />
              <mxPoint x="805" y="800" />
            </Array>
          </mxGeometry>
        </mxCell>
      </root>
    </mxGraphModel>
  </diagram>
</mxfile>
